<svg width="8" height="41" viewBox="0 0 8 41" fill="none" xmlns="http://www.w3.org/2000/svg">
<path d="M7.46103 0.802427L6.07888 28.777H2.37474L0.937311 0.802427H7.46103ZM1.65603 39.226C0.95574 38.5257 0.605597 37.678 0.605597 36.6829C0.605597 35.6877 0.95574 34.84 1.65603 34.1397C2.35631 33.4026 3.20403 33.034 4.19917 33.034C5.19431 33.034 6.04203 33.4026 6.74231 34.1397C7.47945 34.84 7.84803 35.6877 7.84803 36.6829C7.84803 37.678 7.47945 38.5257 6.74231 39.226C6.04203 39.9263 5.19431 40.2764 4.19917 40.2764C3.20403 40.2764 2.35631 39.9263 1.65603 39.226Z" fill="#F6F6F6"/>
</svg>
